<svg viewBox="0 0 56.693 56.693" xml:space="preserve" xmlns="http://www.w3.org/2000/svg"><path d="M16.356 9.799h2.026v2.219h2.216V5.391h-2.216v2.19h-2.026v-2.19h-2.215v6.627h2.215zM23.51 12.018h2.215V7.59h1.949V5.391h-6.113V7.59h1.949zM30.812 8.735l1.526 2.355h.037l1.523-2.355v3.283h2.207V5.391h-2.31l-1.42 2.332-1.42-2.332h-2.309v6.627h2.166zM42.537 9.829h-3.115V5.391h-2.215v6.627h5.33zM10.949 14.926l3.168 35.532 14.221 3.947L42.57 50.46l3.174-35.534H10.949zm27.922 11.62H22.194l.398 4.463h15.883L37.28 44.392l-8.934 2.475-.006.002-8.928-2.477-.623-7h4.374l.324 3.631 4.854 1.312.006-.002 4.859-1.312.506-5.652H18.608L17.431 22.19H39.26l-.389 4.356z" fill="#ffffff" class="fill-000000"></path></svg>